<?xml version="1.0" encoding="utf-8"?>
<!-- Generator: Adobe Illustrator 18.0.0, SVG Export Plug-In . SVG Version: 6.00 Build 0)  -->
<!DOCTYPE svg PUBLIC "-//W3C//DTD SVG 1.1//EN" "http://www.w3.org/Graphics/SVG/1.1/DTD/svg11.dtd">
<svg version="1.1" id="Capa_1" xmlns="http://www.w3.org/2000/svg" xmlns:xlink="http://www.w3.org/1999/xlink" x="0px" y="0px"
	 viewBox="0 98 612 590" enable-background="new 0 98 612 590" xml:space="preserve">
<circle fill="#12100E" cx="299.3" cy="392.5" r="277"/>
<path fill="#FFFFFF" d="M164.8,309.6c0.4-4.3-1.2-8.6-4.4-11.5l-32.9-39.7v-5.9h102.3l79.1,173.4l69.5-173.4h97.5v5.9l-28.2,27
	c-2.4,1.9-3.6,4.9-3.1,7.9v198.4c-0.5,3,0.7,6.1,3.1,7.9l27.5,27v5.9H336.7v-5.9l28.5-27.7c2.8-2.8,2.8-3.6,2.8-7.9V330.7
	l-79.2,201.2h-10.7l-92.2-201.2v134.8c-0.8,5.7,1.1,11.4,5.1,15.5L228,526v5.9H123V526L160,481c4-4.1,5.7-9.9,4.8-15.5V309.6z"/>
</svg>
